# xmcd CD database file
#
# Track frame offsets:
#	150
#	13272
#	29825
#	45394
#	59439
#	73797
#	87391
#	98505
#	112007
#	127496
#	141639
#	158147
#
# Disc length: 2310 seconds
#
# Revision: 3
# Processed by: cddbd v1.5.2PL0 Copyright (c) Steve Scherf et al.
# Submitted via: CDex 2.21
#
DISCID=b709040c
DTITLE=Collin Raye - Still on the Line....the Songs of Glen Campbell
DYEAR=2013
DGENRE=Country
TTITLE0=Galveston
TTITLE1=Gentle on My Mind (feat. Ricky Skaggs)
TTITLE2=Wichita Lineman
TTITLE3=Southern Nights
TTITLE4=True Grit
TTITLE5=Country Boy
TTITLE6=Try a Little Kindness
TTITLE7=Dreams of the Everyday Housewife
TTITLE8=By the Time I Get to Phoenix
TTITLE9=The Hand That Rocks the Cradle
TTITLE10=Rhinestone Cowboy (feat. Billy Dean)
TTITLE11=Where's the Playground Susie
EXTD=YEAR: 2013
EXTT0=
EXTT1=
EXTT2=
EXTT3=
EXTT4=
EXTT5=
EXTT6=
EXTT7=
EXTT8=
EXTT9=
EXTT10=
EXTT11=
PLAYORDER=
